<!DOCTYPE svg PUBLIC "-//W3C//DTD SVG 1.1//EN" "http://www.w3.org/Graphics/SVG/1.1/DTD/svg11.dtd">
<svg version="1.1" id="Capa_1" xmlns="http://www.w3.org/2000/svg" xmlns:xlink="http://www.w3.org/1999/xlink" x="0px" y="0px"
	 width="533.333px" height="533.333px" viewBox="0 0 533.333 533.333" style="enable-background:new 0 0 533.333 533.333;"
	 xml:space="preserve" fill="#fff">
<g>
	<path d="M200,100c128.867,0,233.333,104.468,233.333,233.333h-50c0-48.97-19.069-95.009-53.697-129.636
		C295.009,169.07,248.97,150,200,150V100z M200,0c184.094,0,333.333,149.24,333.333,333.333h-50
		c0-38.271-7.484-75.372-22.246-110.27c-14.267-33.733-34.703-64.04-60.74-90.077c-26.038-26.038-56.344-46.474-90.077-60.742
		C275.373,57.484,238.272,50,200,50V0z M299.162,234.171c22.79,22.79,34.164,52.66,34.151,82.526
		C300,366.695,300,433.333,300,433.333c-133.333,0-233.333,100-233.333,100l-7.292-7.291l-12.047-12.048l147.699-147.697
		c1.623,0.241,3.282,0.37,4.973,0.37c18.409,0,33.333-14.925,33.333-33.334S218.409,300,200,300s-33.333,14.924-33.333,33.333
		c0,1.691,0.128,3.352,0.371,4.973l-147.699,147.7L0,466.667c0,0,100-100,100-233.333c0,0,66.666,0,116.666-33.333
		C246.524,200,276.381,211.391,299.162,234.171z"/>
</g>
</svg>
